<?xml version="1.0" standalone="no"?>
<!DOCTYPE svg PUBLIC "-//W3C//DTD SVG 20010904//EN"
 "http://www.w3.org/TR/2001/REC-SVG-20010904/DTD/svg10.dtd">
<svg version="1.0" xmlns="http://www.w3.org/2000/svg"
 width="512.000000pt" height="512.000000pt" viewBox="0 0 512.000000 512.000000"
 preserveAspectRatio="xMidYMid meet">

<g transform="translate(0.000000,512.000000) scale(0.100000,-0.100000)"
fill="#000000" stroke="none">
<path d="M0 2560 l0 -2560 2560 0 2560 0 0 2560 0 2560 -2560 0 -2560 0 0
-2560z m3070 1770 c353 -32 622 -111 794 -234 34 -24 99 -83 143 -130 66 -70
91 -106 137 -198 98 -197 132 -386 123 -672 -15 -458 -155 -710 -509 -921
-166 -99 -339 -160 -553 -196 -111 -19 -155 -20 -607 -17 l-488 3 -2 -660 -3
-660 -527 -3 -528 -2 0 1850 0 1850 953 0 c572 0 998 -4 1067 -10z"/>
<path d="M2110 3155 l0 -455 318 0 c344 0 392 6 500 57 74 35 170 131 205 205
56 119 58 277 6 386 -51 104 -167 180 -341 222 -85 21 -344 39 -575 40 l-113
0 0 -455z"/>
</g>
</svg>
